<svg width="44" height="44" viewBox="0 0 44 44" fill="none" xmlns="http://www.w3.org/2000/svg">
<g clip-path="url(#clip0_2019_351)">
<mask id="path-1-outside-1_2019_351" maskUnits="userSpaceOnUse" x="21.1407" y="16.2759" width="28.9914" height="28.9914" fill="black">
<rect fill="white" x="21.1407" y="16.2759" width="28.9914" height="28.9914"/>
<path fill-rule="evenodd" clip-rule="evenodd" d="M37.0269 26.5073L31.7462 21.2267C31.3557 20.8361 31.3557 20.203 31.7462 19.8124C32.1368 19.4219 32.7699 19.4219 33.1605 19.8124L40.3484 27.0004C40.7657 27.3876 41.0269 27.9407 41.0269 28.5549L41.0269 38.5405C41.0269 39.645 40.1315 40.5405 39.0269 40.5405C37.9224 40.5405 37.0269 39.645 37.0269 38.5405L37.0269 26.5073Z"/>
</mask>
<path d="M37.0269 26.5073L39.0269 26.5073L39.0269 25.6789L38.4411 25.0931L37.0269 26.5073ZM33.1605 19.8124L31.7462 21.2267L33.1605 19.8124ZM40.3484 27.0004L38.9342 28.4146L38.9607 28.4411L38.9882 28.4666L40.3484 27.0004ZM41.0269 28.5549L43.0269 28.5549L43.0269 28.5549L41.0269 28.5549ZM41.0269 38.5405L39.0269 38.5405L39.0269 38.5405L41.0269 38.5405ZM39.0269 40.5405L39.0269 42.5405L39.0269 42.5405V40.5405ZM37.0269 38.5405L39.0269 38.5405L39.0269 38.5405L37.0269 38.5405ZM38.4411 25.0931L33.1605 19.8124L30.332 22.6409L35.6127 27.9216L38.4411 25.0931ZM33.1605 19.8124C33.551 20.203 33.551 20.8361 33.1605 21.2267L30.332 18.3982C29.1605 19.5698 29.1605 21.4693 30.332 22.6409L33.1605 19.8124ZM33.1605 21.2267C32.7699 21.6172 32.1368 21.6172 31.7462 21.2267L34.5747 18.3982C33.4031 17.2267 31.5036 17.2267 30.332 18.3982L33.1605 21.2267ZM31.7462 21.2267L38.9342 28.4146L41.7626 25.5862L34.5747 18.3982L31.7462 21.2267ZM38.9882 28.4666C39.0016 28.4791 39.0114 28.4933 39.0175 28.5069C39.0229 28.5191 39.0269 28.5339 39.0269 28.5549L43.0269 28.5549C43.0269 27.3614 42.5168 26.2839 41.7086 25.5341L38.9882 28.4666ZM39.0269 28.5549L39.0269 38.5405L43.0269 38.5405L43.0269 28.5549L39.0269 28.5549ZM39.0269 38.5405L39.0269 38.5405V42.5405C41.2361 42.5405 43.0269 40.7496 43.0269 38.5405L39.0269 38.5405ZM39.0269 38.5405L39.0269 38.5405L35.0269 38.5405C35.0269 40.7496 36.8178 42.5405 39.0269 42.5405L39.0269 38.5405ZM39.0269 38.5405L39.0269 26.5073L35.0269 26.5073L35.0269 38.5405L39.0269 38.5405Z" fill="#FDFDFD" mask="url(#path-1-outside-1_2019_351)"/>
<rect x="25.5062" y="12.1753" width="20" height="24" rx="3" transform="rotate(45 25.5062 12.1753)" fill="#FDFDFD" stroke="#FDFDFD" stroke-width="2"/>
<path d="M28.4387 20.5563V11.2426C28.4387 10.1381 27.5433 9.24264 26.4387 9.24264H21.9535C20.8489 9.24264 19.9535 10.1381 19.9535 11.2426V20.5563" stroke="#FDFDFD" stroke-width="4"/>
<path d="M28.4387 20.5563V11.2426C28.4387 10.1381 27.5433 9.24264 26.4387 9.24264H21.9535C20.8489 9.24264 19.9535 10.1381 19.9535 11.2426V20.5563" stroke="black"/>
<rect x="25.5061" y="14.2966" width="17" height="21" rx="1.5" transform="rotate(45 25.5061 14.2966)" fill="#FDFDFD" stroke="black"/>
<circle cx="28.3459" cy="23.2919" r="1.5" transform="rotate(45 28.3459 23.2919)" fill="#FDFDFD" stroke="black"/>
<path fill-rule="evenodd" clip-rule="evenodd" d="M37.0269 26.5073L31.7462 21.2267C31.3557 20.8361 31.3557 20.203 31.7462 19.8124C32.1368 19.4219 32.7699 19.4219 33.1605 19.8124L40.3484 27.0004C40.7657 27.3876 41.0269 27.9407 41.0269 28.5549L41.0269 38.5405C41.0269 39.645 40.1315 40.5405 39.0269 40.5405C37.9224 40.5405 37.0269 39.645 37.0269 38.5405L37.0269 26.5073Z" fill="black"/>
<path d="M28.3459 16.2208V21.8777" stroke="black"/>
<path d="M0.091216 1.53423L6.64689 16.9305C7.03262 17.8364 8.32299 17.8181 8.68286 16.9016L11.0002 11.0001L16.9016 8.68282C17.8181 8.32294 17.8364 7.03258 16.9305 6.64685L1.53422 0.091215C0.62292 -0.296812 -0.296813 0.622926 0.091216 1.53423Z" fill="#12131A"/>
<path fill-rule="evenodd" clip-rule="evenodd" d="M6.64689 16.9305L0.091216 1.53423C-0.296813 0.622926 0.622921 -0.296812 1.53422 0.091215L16.9305 6.64685C17.8364 7.03258 17.8181 8.32294 16.9016 8.68282L11.0002 11.0001L8.68286 16.9016C8.32299 17.8181 7.03262 17.8364 6.64689 16.9305ZM13.5949 7.61772L9.30306 9.30301L7.61776 13.5949L3.18542 3.18541L13.5949 7.61772Z" fill="white"/>
</g>
<defs>
<clipPath id="clip0_2019_351">
<rect width="44" height="44" fill="white"/>
</clipPath>
</defs>
</svg>
